<?xml version="1.0" encoding="UTF-8" standalone="no"?>
<!DOCTYPE svg PUBLIC "-//W3C//DTD SVG 1.1//EN"
 "http://www.w3.org/Graphics/SVG/1.1/DTD/svg11.dtd">
<!-- Generated by graphviz version 2.46.1 (20210213.1702)
 -->
<!-- Title: snakemake_dag Pages: 1 -->
<svg width="652pt" height="764pt"
 viewBox="0.00 0.00 651.90 764.00" xmlns="http://www.w3.org/2000/svg" xmlns:xlink="http://www.w3.org/1999/xlink">
<g id="graph0" class="graph" transform="scale(1 1) rotate(0) translate(4 760)">
<title>snakemake_dag</title>
<polygon fill="white" stroke="transparent" points="-4,4 -4,-760 647.9,-760 647.9,4 -4,4"/>
<!-- 0 -->
<g id="node1" class="node">
<title>0</title>
<path fill="none" stroke="#d8ac56" stroke-width="2" d="M234.4,-36C234.4,-36 204.4,-36 204.4,-36 198.4,-36 192.4,-30 192.4,-24 192.4,-24 192.4,-12 192.4,-12 192.4,-6 198.4,0 204.4,0 204.4,0 234.4,0 234.4,0 240.4,0 246.4,-6 246.4,-12 246.4,-12 246.4,-24 246.4,-24 246.4,-30 240.4,-36 234.4,-36"/>
<text text-anchor="middle" x="219.4" y="-15.5" font-family="sans" font-size="10.00">all</text>
</g>
<!-- 1 -->
<g id="node2" class="node">
<title>1</title>
<path fill="none" stroke="#59d856" stroke-width="2" d="M254.4,-108C254.4,-108 184.4,-108 184.4,-108 178.4,-108 172.4,-102 172.4,-96 172.4,-96 172.4,-84 172.4,-84 172.4,-78 178.4,-72 184.4,-72 184.4,-72 254.4,-72 254.4,-72 260.4,-72 266.4,-78 266.4,-84 266.4,-84 266.4,-96 266.4,-96 266.4,-102 260.4,-108 254.4,-108"/>
<text text-anchor="middle" x="219.4" y="-87.5" font-family="sans" font-size="10.00">make_histograms</text>
</g>
<!-- 1&#45;&gt;0 -->
<g id="edge1" class="edge">
<title>1&#45;&gt;0</title>
<path fill="none" stroke="grey" stroke-width="2" d="M219.4,-71.7C219.4,-63.98 219.4,-54.71 219.4,-46.11"/>
<polygon fill="grey" stroke="grey" stroke-width="2" points="222.9,-46.1 219.4,-36.1 215.9,-46.1 222.9,-46.1"/>
</g>
<!-- 2 -->
<g id="node3" class="node">
<title>2</title>
<path fill="none" stroke="#80d856" stroke-width="2" d="M198.4,-180C198.4,-180 142.4,-180 142.4,-180 136.4,-180 130.4,-174 130.4,-168 130.4,-168 130.4,-156 130.4,-156 130.4,-150 136.4,-144 142.4,-144 142.4,-144 198.4,-144 198.4,-144 204.4,-144 210.4,-150 210.4,-156 210.4,-156 210.4,-168 210.4,-168 210.4,-174 204.4,-180 198.4,-180"/>
<text text-anchor="middle" x="170.4" y="-159.5" font-family="sans" font-size="10.00">vcf_filterDepth</text>
</g>
<!-- 2&#45;&gt;1 -->
<g id="edge2" class="edge">
<title>2&#45;&gt;1</title>
<path fill="none" stroke="grey" stroke-width="2" d="M182.51,-143.7C188.27,-135.47 195.26,-125.48 201.6,-116.42"/>
<polygon fill="grey" stroke="grey" stroke-width="2" points="204.56,-118.3 207.42,-108.1 198.82,-114.29 204.56,-118.3"/>
</g>
<!-- 3 -->
<g id="node4" class="node">
<title>3</title>
<path fill="none" stroke="#d88556" stroke-width="2" d="M128.9,-468C128.9,-468 67.9,-468 67.9,-468 61.9,-468 55.9,-462 55.9,-456 55.9,-456 55.9,-444 55.9,-444 55.9,-438 61.9,-432 67.9,-432 67.9,-432 128.9,-432 128.9,-432 134.9,-432 140.9,-438 140.9,-444 140.9,-444 140.9,-456 140.9,-456 140.9,-462 134.9,-468 128.9,-468"/>
<text text-anchor="middle" x="98.4" y="-447.5" font-family="sans" font-size="10.00">vcf_filterQuality</text>
</g>
<!-- 3&#45;&gt;2 -->
<g id="edge4" class="edge">
<title>3&#45;&gt;2</title>
<path fill="none" stroke="grey" stroke-width="2" d="M102.69,-431.97C114.71,-384.19 148.84,-248.62 163.53,-190.27"/>
<polygon fill="grey" stroke="grey" stroke-width="2" points="166.99,-190.86 166.04,-180.31 160.2,-189.15 166.99,-190.86"/>
</g>
<!-- 4 -->
<g id="node5" class="node">
<title>4</title>
<path fill="none" stroke="#d6d856" stroke-width="2" d="M103.4,-540C103.4,-540 71.4,-540 71.4,-540 65.4,-540 59.4,-534 59.4,-528 59.4,-528 59.4,-516 59.4,-516 59.4,-510 65.4,-504 71.4,-504 71.4,-504 103.4,-504 103.4,-504 109.4,-504 115.4,-510 115.4,-516 115.4,-516 115.4,-528 115.4,-528 115.4,-534 109.4,-540 103.4,-540"/>
<text text-anchor="middle" x="87.4" y="-519.5" font-family="sans" font-size="10.00">bcfToVcf</text>
</g>
<!-- 4&#45;&gt;3 -->
<g id="edge5" class="edge">
<title>4&#45;&gt;3</title>
<path fill="none" stroke="grey" stroke-width="2" d="M90.12,-503.7C91.33,-495.98 92.78,-486.71 94.14,-478.11"/>
<polygon fill="grey" stroke="grey" stroke-width="2" points="97.61,-478.53 95.71,-468.1 90.7,-477.44 97.61,-478.53"/>
</g>
<!-- 5 -->
<g id="node6" class="node">
<title>5</title>
<path fill="none" stroke="#56d8a9" stroke-width="2" d="M90.4,-612C90.4,-612 42.4,-612 42.4,-612 36.4,-612 30.4,-606 30.4,-600 30.4,-600 30.4,-588 30.4,-588 30.4,-582 36.4,-576 42.4,-576 42.4,-576 90.4,-576 90.4,-576 96.4,-576 102.4,-582 102.4,-588 102.4,-588 102.4,-600 102.4,-600 102.4,-606 96.4,-612 90.4,-612"/>
<text text-anchor="middle" x="66.4" y="-591.5" font-family="sans" font-size="10.00">call_Variants</text>
</g>
<!-- 5&#45;&gt;4 -->
<g id="edge6" class="edge">
<title>5&#45;&gt;4</title>
<path fill="none" stroke="grey" stroke-width="2" d="M71.59,-575.7C73.93,-567.9 76.74,-558.51 79.35,-549.83"/>
<polygon fill="grey" stroke="grey" stroke-width="2" points="82.74,-550.69 82.27,-540.1 76.04,-548.68 82.74,-550.69"/>
</g>
<!-- 6 -->
<g id="node7" class="node">
<title>6</title>
<path fill="none" stroke="#56d882" stroke-width="2" d="M331.4,-756C331.4,-756 289.4,-756 289.4,-756 283.4,-756 277.4,-750 277.4,-744 277.4,-744 277.4,-732 277.4,-732 277.4,-726 283.4,-720 289.4,-720 289.4,-720 331.4,-720 331.4,-720 337.4,-720 343.4,-726 343.4,-732 343.4,-732 343.4,-744 343.4,-744 343.4,-750 337.4,-756 331.4,-756"/>
<text text-anchor="middle" x="310.4" y="-735.5" font-family="sans" font-size="10.00">twoBitToFa</text>
</g>
<!-- 6&#45;&gt;5 -->
<g id="edge7" class="edge">
<title>6&#45;&gt;5</title>
<path fill="none" stroke="grey" stroke-width="2" d="M277.27,-736.36C205.78,-734.22 40.74,-724.85 6.4,-684 -11.12,-663.17 10.89,-637.13 33.01,-618.62"/>
<polygon fill="grey" stroke="grey" stroke-width="2" points="35.47,-621.13 41.1,-612.16 31.1,-615.66 35.47,-621.13"/>
</g>
<!-- 7 -->
<g id="node8" class="node">
<title>7</title>
<path fill="none" stroke="#56d8d8" stroke-width="2" d="M339.9,-684C339.9,-684 280.9,-684 280.9,-684 274.9,-684 268.9,-678 268.9,-672 268.9,-672 268.9,-660 268.9,-660 268.9,-654 274.9,-648 280.9,-648 280.9,-648 339.9,-648 339.9,-648 345.9,-648 351.9,-654 351.9,-660 351.9,-660 351.9,-672 351.9,-672 351.9,-678 345.9,-684 339.9,-684"/>
<text text-anchor="middle" x="310.4" y="-663.5" font-family="sans" font-size="10.00">index_fastqFile</text>
</g>
<!-- 6&#45;&gt;7 -->
<g id="edge10" class="edge">
<title>6&#45;&gt;7</title>
<path fill="none" stroke="grey" stroke-width="2" d="M310.4,-719.7C310.4,-711.98 310.4,-702.71 310.4,-694.11"/>
<polygon fill="grey" stroke="grey" stroke-width="2" points="313.9,-694.1 310.4,-684.1 306.9,-694.1 313.9,-694.1"/>
</g>
<!-- 14 -->
<g id="node15" class="node">
<title>14</title>
<path fill="none" stroke="#56d8a9" stroke-width="2" d="M230.4,-612C230.4,-612 182.4,-612 182.4,-612 176.4,-612 170.4,-606 170.4,-600 170.4,-600 170.4,-588 170.4,-588 170.4,-582 176.4,-576 182.4,-576 182.4,-576 230.4,-576 230.4,-576 236.4,-576 242.4,-582 242.4,-588 242.4,-588 242.4,-600 242.4,-600 242.4,-606 236.4,-612 230.4,-612"/>
<text text-anchor="middle" x="206.4" y="-591.5" font-family="sans" font-size="10.00">call_Variants</text>
</g>
<!-- 6&#45;&gt;14 -->
<g id="edge21" class="edge">
<title>6&#45;&gt;14</title>
<path fill="none" stroke="grey" stroke-width="2" d="M277.16,-736.41C240.04,-733.75 181.5,-723.14 153.4,-684 138.31,-662.98 156.93,-637.47 176.13,-619.16"/>
<polygon fill="grey" stroke="grey" stroke-width="2" points="178.67,-621.58 183.73,-612.27 173.97,-616.39 178.67,-621.58"/>
</g>
<!-- 20 -->
<g id="node21" class="node">
<title>20</title>
<path fill="none" stroke="#56d8a9" stroke-width="2" d="M404.4,-612C404.4,-612 356.4,-612 356.4,-612 350.4,-612 344.4,-606 344.4,-600 344.4,-600 344.4,-588 344.4,-588 344.4,-582 350.4,-576 356.4,-576 356.4,-576 404.4,-576 404.4,-576 410.4,-576 416.4,-582 416.4,-588 416.4,-588 416.4,-600 416.4,-600 416.4,-606 410.4,-612 404.4,-612"/>
<text text-anchor="middle" x="380.4" y="-591.5" font-family="sans" font-size="10.00">call_Variants</text>
</g>
<!-- 6&#45;&gt;20 -->
<g id="edge28" class="edge">
<title>6&#45;&gt;20</title>
<path fill="none" stroke="grey" stroke-width="2" d="M331.68,-719.95C342.16,-710.44 354.09,-697.76 361.4,-684 371.62,-664.75 376.34,-640.41 378.52,-622.05"/>
<polygon fill="grey" stroke="grey" stroke-width="2" points="382.01,-622.32 379.54,-612.01 375.05,-621.61 382.01,-622.32"/>
</g>
<!-- 26 -->
<g id="node27" class="node">
<title>26</title>
<path fill="none" stroke="#56d8a9" stroke-width="2" d="M549.4,-612C549.4,-612 501.4,-612 501.4,-612 495.4,-612 489.4,-606 489.4,-600 489.4,-600 489.4,-588 489.4,-588 489.4,-582 495.4,-576 501.4,-576 501.4,-576 549.4,-576 549.4,-576 555.4,-576 561.4,-582 561.4,-588 561.4,-588 561.4,-600 561.4,-600 561.4,-606 555.4,-612 549.4,-612"/>
<text text-anchor="middle" x="525.4" y="-591.5" font-family="sans" font-size="10.00">call_Variants</text>
</g>
<!-- 6&#45;&gt;26 -->
<g id="edge35" class="edge">
<title>6&#45;&gt;26</title>
<path fill="none" stroke="grey" stroke-width="2" d="M343.5,-732.36C393.58,-724.65 485.16,-707.69 507.4,-684 522.78,-667.61 526.61,-641.87 526.99,-622.27"/>
<polygon fill="grey" stroke="grey" stroke-width="2" points="530.49,-622.09 526.89,-612.12 523.49,-622.15 530.49,-622.09"/>
</g>
<!-- 7&#45;&gt;5 -->
<g id="edge8" class="edge">
<title>7&#45;&gt;5</title>
<path fill="none" stroke="grey" stroke-width="2" d="M268.72,-650.62C265.91,-649.71 263.11,-648.83 260.4,-648 210.18,-632.62 152.01,-617.02 112.56,-606.76"/>
<polygon fill="grey" stroke="grey" stroke-width="2" points="113.26,-603.33 102.7,-604.21 111.5,-610.11 113.26,-603.33"/>
</g>
<!-- 7&#45;&gt;14 -->
<g id="edge22" class="edge">
<title>7&#45;&gt;14</title>
<path fill="none" stroke="grey" stroke-width="2" d="M284.96,-647.88C271.61,-638.89 255.07,-627.76 240.62,-618.03"/>
<polygon fill="grey" stroke="grey" stroke-width="2" points="242.19,-614.87 231.94,-612.19 238.28,-620.68 242.19,-614.87"/>
</g>
<!-- 7&#45;&gt;20 -->
<g id="edge29" class="edge">
<title>7&#45;&gt;20</title>
<path fill="none" stroke="grey" stroke-width="2" d="M327.7,-647.7C336.26,-639.14 346.74,-628.66 356.09,-619.3"/>
<polygon fill="grey" stroke="grey" stroke-width="2" points="358.7,-621.65 363.29,-612.1 353.75,-616.7 358.7,-621.65"/>
</g>
<!-- 7&#45;&gt;26 -->
<g id="edge36" class="edge">
<title>7&#45;&gt;26</title>
<path fill="none" stroke="grey" stroke-width="2" d="M352.11,-651.42C388.65,-639.52 441.68,-622.26 479.43,-609.97"/>
<polygon fill="grey" stroke="grey" stroke-width="2" points="480.74,-613.22 489.17,-606.8 478.57,-606.56 480.74,-613.22"/>
</g>
<!-- 8 -->
<g id="node9" class="node">
<title>8</title>
<path fill="none" stroke="#5682d8" stroke-width="2" d="M92.9,-684C92.9,-684 27.9,-684 27.9,-684 21.9,-684 15.9,-678 15.9,-672 15.9,-672 15.9,-660 15.9,-660 15.9,-654 21.9,-648 27.9,-648 27.9,-648 92.9,-648 92.9,-648 98.9,-648 104.9,-654 104.9,-660 104.9,-660 104.9,-672 104.9,-672 104.9,-678 98.9,-684 92.9,-684"/>
<text text-anchor="middle" x="60.4" y="-669" font-family="sans" font-size="10.00">sorted_bamFiles</text>
<text text-anchor="middle" x="60.4" y="-658" font-family="sans" font-size="10.00">sample: WT</text>
</g>
<!-- 8&#45;&gt;5 -->
<g id="edge9" class="edge">
<title>8&#45;&gt;5</title>
<path fill="none" stroke="grey" stroke-width="2" d="M61.88,-647.7C62.54,-639.98 63.34,-630.71 64.07,-622.11"/>
<polygon fill="grey" stroke="grey" stroke-width="2" points="67.56,-622.37 64.93,-612.1 60.59,-621.77 67.56,-622.37"/>
</g>
<!-- 9 -->
<g id="node10" class="node">
<title>9</title>
<path fill="none" stroke="#56a9d8" stroke-width="2" d="M342.9,-180C342.9,-180 287.9,-180 287.9,-180 281.9,-180 275.9,-174 275.9,-168 275.9,-168 275.9,-156 275.9,-156 275.9,-150 281.9,-144 287.9,-144 287.9,-144 342.9,-144 342.9,-144 348.9,-144 354.9,-150 354.9,-156 354.9,-156 354.9,-168 354.9,-168 354.9,-174 348.9,-180 342.9,-180"/>
<text text-anchor="middle" x="315.4" y="-159.5" font-family="sans" font-size="10.00">mergeKOFiles</text>
</g>
<!-- 9&#45;&gt;1 -->
<g id="edge3" class="edge">
<title>9&#45;&gt;1</title>
<path fill="none" stroke="grey" stroke-width="2" d="M291.67,-143.7C279.46,-134.8 264.41,-123.82 251.21,-114.2"/>
<polygon fill="grey" stroke="grey" stroke-width="2" points="253,-111.17 242.85,-108.1 248.87,-116.82 253,-111.17"/>
</g>
<!-- 10 -->
<g id="node11" class="node">
<title>10</title>
<path fill="none" stroke="#afd856" stroke-width="2" d="M221.4,-324C221.4,-324 191.4,-324 191.4,-324 185.4,-324 179.4,-318 179.4,-312 179.4,-312 179.4,-300 179.4,-300 179.4,-294 185.4,-288 191.4,-288 191.4,-288 221.4,-288 221.4,-288 227.4,-288 233.4,-294 233.4,-300 233.4,-300 233.4,-312 233.4,-312 233.4,-318 227.4,-324 221.4,-324"/>
<text text-anchor="middle" x="206.4" y="-303.5" font-family="sans" font-size="10.00">zip_vcf</text>
</g>
<!-- 10&#45;&gt;9 -->
<g id="edge11" class="edge">
<title>10&#45;&gt;9</title>
<path fill="none" stroke="grey" stroke-width="2" d="M200.16,-287.77C194.4,-268.66 188.63,-237.67 202.4,-216 216.43,-193.92 242.37,-180.87 265.85,-173.26"/>
<polygon fill="grey" stroke="grey" stroke-width="2" points="267.14,-176.53 275.73,-170.31 265.14,-169.82 267.14,-176.53"/>
</g>
<!-- 28 -->
<g id="node29" class="node">
<title>28</title>
<path fill="none" stroke="#d85656" stroke-width="2" d="M275.4,-252C275.4,-252 223.4,-252 223.4,-252 217.4,-252 211.4,-246 211.4,-240 211.4,-240 211.4,-228 211.4,-228 211.4,-222 217.4,-216 223.4,-216 223.4,-216 275.4,-216 275.4,-216 281.4,-216 287.4,-222 287.4,-228 287.4,-228 287.4,-240 287.4,-240 287.4,-246 281.4,-252 275.4,-252"/>
<text text-anchor="middle" x="249.4" y="-231.5" font-family="sans" font-size="10.00">index_VcfFile</text>
</g>
<!-- 10&#45;&gt;28 -->
<g id="edge38" class="edge">
<title>10&#45;&gt;28</title>
<path fill="none" stroke="grey" stroke-width="2" d="M217.03,-287.7C222.03,-279.56 228.09,-269.69 233.61,-260.7"/>
<polygon fill="grey" stroke="grey" stroke-width="2" points="236.64,-262.46 238.89,-252.1 230.67,-258.79 236.64,-262.46"/>
</g>
<!-- 11 -->
<g id="node12" class="node">
<title>11</title>
<path fill="none" stroke="#80d856" stroke-width="2" d="M234.4,-396C234.4,-396 178.4,-396 178.4,-396 172.4,-396 166.4,-390 166.4,-384 166.4,-384 166.4,-372 166.4,-372 166.4,-366 172.4,-360 178.4,-360 178.4,-360 234.4,-360 234.4,-360 240.4,-360 246.4,-366 246.4,-372 246.4,-372 246.4,-384 246.4,-384 246.4,-390 240.4,-396 234.4,-396"/>
<text text-anchor="middle" x="206.4" y="-375.5" font-family="sans" font-size="10.00">vcf_filterDepth</text>
</g>
<!-- 11&#45;&gt;10 -->
<g id="edge17" class="edge">
<title>11&#45;&gt;10</title>
<path fill="none" stroke="grey" stroke-width="2" d="M206.4,-359.7C206.4,-351.98 206.4,-342.71 206.4,-334.11"/>
<polygon fill="grey" stroke="grey" stroke-width="2" points="209.9,-334.1 206.4,-324.1 202.9,-334.1 209.9,-334.1"/>
</g>
<!-- 12 -->
<g id="node13" class="node">
<title>12</title>
<path fill="none" stroke="#d88556" stroke-width="2" d="M236.9,-468C236.9,-468 175.9,-468 175.9,-468 169.9,-468 163.9,-462 163.9,-456 163.9,-456 163.9,-444 163.9,-444 163.9,-438 169.9,-432 175.9,-432 175.9,-432 236.9,-432 236.9,-432 242.9,-432 248.9,-438 248.9,-444 248.9,-444 248.9,-456 248.9,-456 248.9,-462 242.9,-468 236.9,-468"/>
<text text-anchor="middle" x="206.4" y="-447.5" font-family="sans" font-size="10.00">vcf_filterQuality</text>
</g>
<!-- 12&#45;&gt;11 -->
<g id="edge18" class="edge">
<title>12&#45;&gt;11</title>
<path fill="none" stroke="grey" stroke-width="2" d="M206.4,-431.7C206.4,-423.98 206.4,-414.71 206.4,-406.11"/>
<polygon fill="grey" stroke="grey" stroke-width="2" points="209.9,-406.1 206.4,-396.1 202.9,-406.1 209.9,-406.1"/>
</g>
<!-- 13 -->
<g id="node14" class="node">
<title>13</title>
<path fill="none" stroke="#d6d856" stroke-width="2" d="M222.4,-540C222.4,-540 190.4,-540 190.4,-540 184.4,-540 178.4,-534 178.4,-528 178.4,-528 178.4,-516 178.4,-516 178.4,-510 184.4,-504 190.4,-504 190.4,-504 222.4,-504 222.4,-504 228.4,-504 234.4,-510 234.4,-516 234.4,-516 234.4,-528 234.4,-528 234.4,-534 228.4,-540 222.4,-540"/>
<text text-anchor="middle" x="206.4" y="-519.5" font-family="sans" font-size="10.00">bcfToVcf</text>
</g>
<!-- 13&#45;&gt;12 -->
<g id="edge19" class="edge">
<title>13&#45;&gt;12</title>
<path fill="none" stroke="grey" stroke-width="2" d="M206.4,-503.7C206.4,-495.98 206.4,-486.71 206.4,-478.11"/>
<polygon fill="grey" stroke="grey" stroke-width="2" points="209.9,-478.1 206.4,-468.1 202.9,-478.1 209.9,-478.1"/>
</g>
<!-- 14&#45;&gt;13 -->
<g id="edge20" class="edge">
<title>14&#45;&gt;13</title>
<path fill="none" stroke="grey" stroke-width="2" d="M206.4,-575.7C206.4,-567.98 206.4,-558.71 206.4,-550.11"/>
<polygon fill="grey" stroke="grey" stroke-width="2" points="209.9,-550.1 206.4,-540.1 202.9,-550.1 209.9,-550.1"/>
</g>
<!-- 15 -->
<g id="node16" class="node">
<title>15</title>
<path fill="none" stroke="#5682d8" stroke-width="2" d="M238.9,-684C238.9,-684 173.9,-684 173.9,-684 167.9,-684 161.9,-678 161.9,-672 161.9,-672 161.9,-660 161.9,-660 161.9,-654 167.9,-648 173.9,-648 173.9,-648 238.9,-648 238.9,-648 244.9,-648 250.9,-654 250.9,-660 250.9,-660 250.9,-672 250.9,-672 250.9,-678 244.9,-684 238.9,-684"/>
<text text-anchor="middle" x="206.4" y="-669" font-family="sans" font-size="10.00">sorted_bamFiles</text>
<text text-anchor="middle" x="206.4" y="-658" font-family="sans" font-size="10.00">sample: KO1</text>
</g>
<!-- 15&#45;&gt;14 -->
<g id="edge23" class="edge">
<title>15&#45;&gt;14</title>
<path fill="none" stroke="grey" stroke-width="2" d="M206.4,-647.7C206.4,-639.98 206.4,-630.71 206.4,-622.11"/>
<polygon fill="grey" stroke="grey" stroke-width="2" points="209.9,-622.1 206.4,-612.1 202.9,-622.1 209.9,-622.1"/>
</g>
<!-- 16 -->
<g id="node17" class="node">
<title>16</title>
<path fill="none" stroke="#afd856" stroke-width="2" d="M395.4,-324C395.4,-324 365.4,-324 365.4,-324 359.4,-324 353.4,-318 353.4,-312 353.4,-312 353.4,-300 353.4,-300 353.4,-294 359.4,-288 365.4,-288 365.4,-288 395.4,-288 395.4,-288 401.4,-288 407.4,-294 407.4,-300 407.4,-300 407.4,-312 407.4,-312 407.4,-318 401.4,-324 395.4,-324"/>
<text text-anchor="middle" x="380.4" y="-303.5" font-family="sans" font-size="10.00">zip_vcf</text>
</g>
<!-- 16&#45;&gt;9 -->
<g id="edge12" class="edge">
<title>16&#45;&gt;9</title>
<path fill="none" stroke="grey" stroke-width="2" d="M361.23,-287.57C351.79,-277.96 341.03,-265.3 334.4,-252 324.73,-232.62 319.97,-208.47 317.63,-190.22"/>
<polygon fill="grey" stroke="grey" stroke-width="2" points="321.1,-189.79 316.51,-180.24 314.15,-190.56 321.1,-189.79"/>
</g>
<!-- 29 -->
<g id="node30" class="node">
<title>29</title>
<path fill="none" stroke="#d85656" stroke-width="2" d="M407.4,-252C407.4,-252 355.4,-252 355.4,-252 349.4,-252 343.4,-246 343.4,-240 343.4,-240 343.4,-228 343.4,-228 343.4,-222 349.4,-216 355.4,-216 355.4,-216 407.4,-216 407.4,-216 413.4,-216 419.4,-222 419.4,-228 419.4,-228 419.4,-240 419.4,-240 419.4,-246 413.4,-252 407.4,-252"/>
<text text-anchor="middle" x="381.4" y="-231.5" font-family="sans" font-size="10.00">index_VcfFile</text>
</g>
<!-- 16&#45;&gt;29 -->
<g id="edge39" class="edge">
<title>16&#45;&gt;29</title>
<path fill="none" stroke="grey" stroke-width="2" d="M380.64,-287.7C380.75,-279.98 380.89,-270.71 381.01,-262.11"/>
<polygon fill="grey" stroke="grey" stroke-width="2" points="384.51,-262.15 381.15,-252.1 377.51,-262.05 384.51,-262.15"/>
</g>
<!-- 17 -->
<g id="node18" class="node">
<title>17</title>
<path fill="none" stroke="#80d856" stroke-width="2" d="M408.4,-396C408.4,-396 352.4,-396 352.4,-396 346.4,-396 340.4,-390 340.4,-384 340.4,-384 340.4,-372 340.4,-372 340.4,-366 346.4,-360 352.4,-360 352.4,-360 408.4,-360 408.4,-360 414.4,-360 420.4,-366 420.4,-372 420.4,-372 420.4,-384 420.4,-384 420.4,-390 414.4,-396 408.4,-396"/>
<text text-anchor="middle" x="380.4" y="-375.5" font-family="sans" font-size="10.00">vcf_filterDepth</text>
</g>
<!-- 17&#45;&gt;16 -->
<g id="edge24" class="edge">
<title>17&#45;&gt;16</title>
<path fill="none" stroke="grey" stroke-width="2" d="M380.4,-359.7C380.4,-351.98 380.4,-342.71 380.4,-334.11"/>
<polygon fill="grey" stroke="grey" stroke-width="2" points="383.9,-334.1 380.4,-324.1 376.9,-334.1 383.9,-334.1"/>
</g>
<!-- 18 -->
<g id="node19" class="node">
<title>18</title>
<path fill="none" stroke="#d88556" stroke-width="2" d="M410.9,-468C410.9,-468 349.9,-468 349.9,-468 343.9,-468 337.9,-462 337.9,-456 337.9,-456 337.9,-444 337.9,-444 337.9,-438 343.9,-432 349.9,-432 349.9,-432 410.9,-432 410.9,-432 416.9,-432 422.9,-438 422.9,-444 422.9,-444 422.9,-456 422.9,-456 422.9,-462 416.9,-468 410.9,-468"/>
<text text-anchor="middle" x="380.4" y="-447.5" font-family="sans" font-size="10.00">vcf_filterQuality</text>
</g>
<!-- 18&#45;&gt;17 -->
<g id="edge25" class="edge">
<title>18&#45;&gt;17</title>
<path fill="none" stroke="grey" stroke-width="2" d="M380.4,-431.7C380.4,-423.98 380.4,-414.71 380.4,-406.11"/>
<polygon fill="grey" stroke="grey" stroke-width="2" points="383.9,-406.1 380.4,-396.1 376.9,-406.1 383.9,-406.1"/>
</g>
<!-- 19 -->
<g id="node20" class="node">
<title>19</title>
<path fill="none" stroke="#d6d856" stroke-width="2" d="M396.4,-540C396.4,-540 364.4,-540 364.4,-540 358.4,-540 352.4,-534 352.4,-528 352.4,-528 352.4,-516 352.4,-516 352.4,-510 358.4,-504 364.4,-504 364.4,-504 396.4,-504 396.4,-504 402.4,-504 408.4,-510 408.4,-516 408.4,-516 408.4,-528 408.4,-528 408.4,-534 402.4,-540 396.4,-540"/>
<text text-anchor="middle" x="380.4" y="-519.5" font-family="sans" font-size="10.00">bcfToVcf</text>
</g>
<!-- 19&#45;&gt;18 -->
<g id="edge26" class="edge">
<title>19&#45;&gt;18</title>
<path fill="none" stroke="grey" stroke-width="2" d="M380.4,-503.7C380.4,-495.98 380.4,-486.71 380.4,-478.11"/>
<polygon fill="grey" stroke="grey" stroke-width="2" points="383.9,-478.1 380.4,-468.1 376.9,-478.1 383.9,-478.1"/>
</g>
<!-- 20&#45;&gt;19 -->
<g id="edge27" class="edge">
<title>20&#45;&gt;19</title>
<path fill="none" stroke="grey" stroke-width="2" d="M380.4,-575.7C380.4,-567.98 380.4,-558.71 380.4,-550.11"/>
<polygon fill="grey" stroke="grey" stroke-width="2" points="383.9,-550.1 380.4,-540.1 376.9,-550.1 383.9,-550.1"/>
</g>
<!-- 21 -->
<g id="node22" class="node">
<title>21</title>
<path fill="none" stroke="#5682d8" stroke-width="2" d="M485.9,-684C485.9,-684 420.9,-684 420.9,-684 414.9,-684 408.9,-678 408.9,-672 408.9,-672 408.9,-660 408.9,-660 408.9,-654 414.9,-648 420.9,-648 420.9,-648 485.9,-648 485.9,-648 491.9,-648 497.9,-654 497.9,-660 497.9,-660 497.9,-672 497.9,-672 497.9,-678 491.9,-684 485.9,-684"/>
<text text-anchor="middle" x="453.4" y="-669" font-family="sans" font-size="10.00">sorted_bamFiles</text>
<text text-anchor="middle" x="453.4" y="-658" font-family="sans" font-size="10.00">sample: KO2</text>
</g>
<!-- 21&#45;&gt;20 -->
<g id="edge30" class="edge">
<title>21&#45;&gt;20</title>
<path fill="none" stroke="grey" stroke-width="2" d="M435.35,-647.7C426.34,-639.05 415.28,-628.45 405.45,-619.03"/>
<polygon fill="grey" stroke="grey" stroke-width="2" points="407.87,-616.5 398.23,-612.1 403.03,-621.55 407.87,-616.5"/>
</g>
<!-- 22 -->
<g id="node23" class="node">
<title>22</title>
<path fill="none" stroke="#afd856" stroke-width="2" d="M528.4,-324C528.4,-324 498.4,-324 498.4,-324 492.4,-324 486.4,-318 486.4,-312 486.4,-312 486.4,-300 486.4,-300 486.4,-294 492.4,-288 498.4,-288 498.4,-288 528.4,-288 528.4,-288 534.4,-288 540.4,-294 540.4,-300 540.4,-300 540.4,-312 540.4,-312 540.4,-318 534.4,-324 528.4,-324"/>
<text text-anchor="middle" x="513.4" y="-303.5" font-family="sans" font-size="10.00">zip_vcf</text>
</g>
<!-- 22&#45;&gt;9 -->
<g id="edge13" class="edge">
<title>22&#45;&gt;9</title>
<path fill="none" stroke="grey" stroke-width="2" d="M498.49,-287.96C478.51,-265.36 443.75,-227.04 428.4,-216 408.87,-201.96 385.03,-190.13 364.29,-181.23"/>
<polygon fill="grey" stroke="grey" stroke-width="2" points="365.59,-177.98 355.01,-177.35 362.89,-184.44 365.59,-177.98"/>
</g>
<!-- 30 -->
<g id="node31" class="node">
<title>30</title>
<path fill="none" stroke="#d85656" stroke-width="2" d="M539.4,-252C539.4,-252 487.4,-252 487.4,-252 481.4,-252 475.4,-246 475.4,-240 475.4,-240 475.4,-228 475.4,-228 475.4,-222 481.4,-216 487.4,-216 487.4,-216 539.4,-216 539.4,-216 545.4,-216 551.4,-222 551.4,-228 551.4,-228 551.4,-240 551.4,-240 551.4,-246 545.4,-252 539.4,-252"/>
<text text-anchor="middle" x="513.4" y="-231.5" font-family="sans" font-size="10.00">index_VcfFile</text>
</g>
<!-- 22&#45;&gt;30 -->
<g id="edge40" class="edge">
<title>22&#45;&gt;30</title>
<path fill="none" stroke="grey" stroke-width="2" d="M513.4,-287.7C513.4,-279.98 513.4,-270.71 513.4,-262.11"/>
<polygon fill="grey" stroke="grey" stroke-width="2" points="516.9,-262.1 513.4,-252.1 509.9,-262.1 516.9,-262.1"/>
</g>
<!-- 23 -->
<g id="node24" class="node">
<title>23</title>
<path fill="none" stroke="#80d856" stroke-width="2" d="M543.4,-396C543.4,-396 487.4,-396 487.4,-396 481.4,-396 475.4,-390 475.4,-384 475.4,-384 475.4,-372 475.4,-372 475.4,-366 481.4,-360 487.4,-360 487.4,-360 543.4,-360 543.4,-360 549.4,-360 555.4,-366 555.4,-372 555.4,-372 555.4,-384 555.4,-384 555.4,-390 549.4,-396 543.4,-396"/>
<text text-anchor="middle" x="515.4" y="-375.5" font-family="sans" font-size="10.00">vcf_filterDepth</text>
</g>
<!-- 23&#45;&gt;22 -->
<g id="edge31" class="edge">
<title>23&#45;&gt;22</title>
<path fill="none" stroke="grey" stroke-width="2" d="M514.9,-359.7C514.68,-351.98 514.42,-342.71 514.17,-334.11"/>
<polygon fill="grey" stroke="grey" stroke-width="2" points="517.67,-334 513.89,-324.1 510.67,-334.2 517.67,-334"/>
</g>
<!-- 24 -->
<g id="node25" class="node">
<title>24</title>
<path fill="none" stroke="#d88556" stroke-width="2" d="M552.9,-468C552.9,-468 491.9,-468 491.9,-468 485.9,-468 479.9,-462 479.9,-456 479.9,-456 479.9,-444 479.9,-444 479.9,-438 485.9,-432 491.9,-432 491.9,-432 552.9,-432 552.9,-432 558.9,-432 564.9,-438 564.9,-444 564.9,-444 564.9,-456 564.9,-456 564.9,-462 558.9,-468 552.9,-468"/>
<text text-anchor="middle" x="522.4" y="-447.5" font-family="sans" font-size="10.00">vcf_filterQuality</text>
</g>
<!-- 24&#45;&gt;23 -->
<g id="edge32" class="edge">
<title>24&#45;&gt;23</title>
<path fill="none" stroke="grey" stroke-width="2" d="M520.67,-431.7C519.9,-423.98 518.97,-414.71 518.11,-406.11"/>
<polygon fill="grey" stroke="grey" stroke-width="2" points="521.59,-405.71 517.11,-396.1 514.62,-406.4 521.59,-405.71"/>
</g>
<!-- 25 -->
<g id="node26" class="node">
<title>25</title>
<path fill="none" stroke="#d6d856" stroke-width="2" d="M538.4,-540C538.4,-540 506.4,-540 506.4,-540 500.4,-540 494.4,-534 494.4,-528 494.4,-528 494.4,-516 494.4,-516 494.4,-510 500.4,-504 506.4,-504 506.4,-504 538.4,-504 538.4,-504 544.4,-504 550.4,-510 550.4,-516 550.4,-516 550.4,-528 550.4,-528 550.4,-534 544.4,-540 538.4,-540"/>
<text text-anchor="middle" x="522.4" y="-519.5" font-family="sans" font-size="10.00">bcfToVcf</text>
</g>
<!-- 25&#45;&gt;24 -->
<g id="edge33" class="edge">
<title>25&#45;&gt;24</title>
<path fill="none" stroke="grey" stroke-width="2" d="M522.4,-503.7C522.4,-495.98 522.4,-486.71 522.4,-478.11"/>
<polygon fill="grey" stroke="grey" stroke-width="2" points="525.9,-478.1 522.4,-468.1 518.9,-478.1 525.9,-478.1"/>
</g>
<!-- 26&#45;&gt;25 -->
<g id="edge34" class="edge">
<title>26&#45;&gt;25</title>
<path fill="none" stroke="grey" stroke-width="2" d="M524.66,-575.7C524.32,-567.98 523.93,-558.71 523.56,-550.11"/>
<polygon fill="grey" stroke="grey" stroke-width="2" points="527.06,-549.95 523.13,-540.1 520.06,-550.25 527.06,-549.95"/>
</g>
<!-- 27 -->
<g id="node28" class="node">
<title>27</title>
<path fill="none" stroke="#5682d8" stroke-width="2" d="M631.9,-684C631.9,-684 566.9,-684 566.9,-684 560.9,-684 554.9,-678 554.9,-672 554.9,-672 554.9,-660 554.9,-660 554.9,-654 560.9,-648 566.9,-648 566.9,-648 631.9,-648 631.9,-648 637.9,-648 643.9,-654 643.9,-660 643.9,-660 643.9,-672 643.9,-672 643.9,-678 637.9,-684 631.9,-684"/>
<text text-anchor="middle" x="599.4" y="-669" font-family="sans" font-size="10.00">sorted_bamFiles</text>
<text text-anchor="middle" x="599.4" y="-658" font-family="sans" font-size="10.00">sample: KO3</text>
</g>
<!-- 27&#45;&gt;26 -->
<g id="edge37" class="edge">
<title>27&#45;&gt;26</title>
<path fill="none" stroke="grey" stroke-width="2" d="M581.1,-647.7C571.96,-639.05 560.76,-628.45 550.8,-619.03"/>
<polygon fill="grey" stroke="grey" stroke-width="2" points="553.15,-616.43 543.48,-612.1 548.34,-621.52 553.15,-616.43"/>
</g>
<!-- 28&#45;&gt;9 -->
<g id="edge14" class="edge">
<title>28&#45;&gt;9</title>
<path fill="none" stroke="grey" stroke-width="2" d="M265.71,-215.7C273.7,-207.22 283.47,-196.86 292.22,-187.58"/>
<polygon fill="grey" stroke="grey" stroke-width="2" points="294.96,-189.78 299.27,-180.1 289.86,-184.98 294.96,-189.78"/>
</g>
<!-- 29&#45;&gt;9 -->
<g id="edge15" class="edge">
<title>29&#45;&gt;9</title>
<path fill="none" stroke="grey" stroke-width="2" d="M365.08,-215.7C357.09,-207.22 347.33,-196.86 338.57,-187.58"/>
<polygon fill="grey" stroke="grey" stroke-width="2" points="340.93,-184.98 331.52,-180.1 335.84,-189.78 340.93,-184.98"/>
</g>
<!-- 30&#45;&gt;9 -->
<g id="edge16" class="edge">
<title>30&#45;&gt;9</title>
<path fill="none" stroke="grey" stroke-width="2" d="M475.22,-219.5C443.82,-208.4 399.09,-192.59 364.94,-180.51"/>
<polygon fill="grey" stroke="grey" stroke-width="2" points="365.75,-177.09 355.15,-177.06 363.41,-183.69 365.75,-177.09"/>
</g>
</g>
</svg>
